<svg xmlns="http://www.w3.org/2000/svg" viewBox="0 0 1400 360" preserveAspectRatio="xMidYMid slice"><defs><linearGradient id="sky" x1="0" y1="0" x2="0" y2="1"><stop stop-color="#63d8ff"/><stop offset=".62" stop-color="#b8efff"/><stop offset="1" stop-color="#7bd47a"/></linearGradient><linearGradient id="j" x1="0" y1="0" x2="0" y2="1"><stop stop-color="#247a38"/><stop offset="1" stop-color="#073c24"/></linearGradient><linearGradient id="gold" x1="0" y1="0" x2="0" y2="1"><stop stop-color="#ffe98b"/><stop offset=".42" stop-color="#ffb51f"/><stop offset="1" stop-color="#c85b09"/></linearGradient><linearGradient id="green" x1="0" y1="0" x2="0" y2="1"><stop stop-color="#c8ff55"/><stop offset=".45" stop-color="#5bce22"/><stop offset="1" stop-color="#16801d"/></linearGradient><filter id="shadow"><feDropShadow dx="0" dy="7" stdDeviation="6" flood-opacity=".55"/></filter></defs><rect width="1400" height="360" fill="url(#sky)"/><circle cx="1200" cy="75" r="62" fill="#fff5a0" opacity=".6"/><path d="M0 290 Q180 205 360 285T720 280T1080 270T1400 250V360H0Z" fill="url(#j)"/><g fill="#07542e"><path d="M0 360V55Q75 95 92 190Q112 95 195 55Q145 175 165 275Q90 220 0 210Z"/><path d="M70 360Q85 220 230 135Q165 255 265 360Z"/><path d="M1400 360V55Q1325 95 1308 190Q1288 95 1205 55Q1255 175 1235 275Q1310 220 1400 210Z"/></g><g fill="#4c5138" stroke="#24291f" stroke-width="8" filter="url(#shadow)"><path d="M42 298Q62 218 126 196Q128 112 210 84Q294 56 345 132Q378 184 330 225L285 236Q272 296 228 326L178 326L156 282L118 324Z"/><path d="M245 150Q330 116 394 153Q426 172 395 198L327 210Q278 204 245 150Z"/><path d="M327 210L392 224L350 240L304 232Z"/><path d="M183 326L171 353M245 326L260 353" fill="none" stroke-linecap="round"/><circle cx="280" cy="128" r="8" fill="#ffe95a" stroke="none"/></g><g fill="#6a7b3d" stroke="#31451e" stroke-width="7" filter="url(#shadow)"><path d="M1100 320Q1045 275 1078 236Q1112 198 1150 215Q1172 180 1164 105Q1158 50 1205 38Q1248 28 1250 82Q1251 143 1220 204Q1270 212 1300 248Q1332 286 1310 320Z"/><path d="M1190 82Q1230 57 1275 78Q1298 90 1278 107L1214 108Z"/><circle cx="1234" cy="73" r="7" fill="#ffe95a" stroke="none"/></g><path d="M690 78Q730 35 775 72Q820 35 860 78Q810 70 778 96Q746 70 690 78Z" fill="#7a5b3d" opacity=".9"/><g text-anchor="middle" font-family="Arial,sans-serif" font-weight="900" filter="url(#shadow)"><text x="700" y="116" font-size="74" fill="url(#gold)" stroke="#6d3706" stroke-width="8" paint-order="stroke">PATTAYA</text><text x="700" y="190" font-size="76" fill="url(#gold)" stroke="#6d3706" stroke-width="9" paint-order="stroke">DINOSAUR</text><text x="700" y="265" font-size="78" fill="url(#green)" stroke="#18500e" stroke-width="9" paint-order="stroke">KINGDOM</text><text x="700" y="312" font-size="19" letter-spacing="7" fill="#123a29" stroke="none">EXPLORE • LEARN • PLAY • CREATE MEMORIES</text></g><g transform="translate(1120 275) rotate(-5)"><path d="M0 0h235l-18 67H18Z" fill="#5b351f" stroke="#2c1c12" stroke-width="7"/><text x="117" y="28" text-anchor="middle" font-family="Arial" font-size="18" font-weight="900" fill="#ffe3a1">PATTAYA</text><text x="117" y="51" text-anchor="middle" font-family="Arial" font-size="18" font-weight="900" fill="#ffe3a1">DINOSAUR KINGDOM</text></g></svg>